<mxfile host="65bd71144e">
    <diagram id="IMfcDTtslhJo9Jacq_pT" name="Page-1">
        <mxGraphModel dx="986" dy="2120" grid="1" gridSize="10" guides="1" tooltips="1" connect="1" arrows="1" fold="1" page="1" pageScale="1" pageWidth="1169" pageHeight="1654" math="0" shadow="0">
            <root>
                <mxCell id="0"/>
                <mxCell id="1" parent="0"/>
                <mxCell id="HRQ94fjygY4lQHOxMg0O-18" value="" style="rounded=0;orthogonalLoop=1;jettySize=auto;html=1;endArrow=none;endFill=0;exitX=0.5;exitY=0.5;exitDx=0;exitDy=0;exitPerimeter=0;" parent="1" source="HRQ94fjygY4lQHOxMg0O-1" target="HRQ94fjygY4lQHOxMg0O-17" edge="1">
                    <mxGeometry relative="1" as="geometry"/>
                </mxCell>
                <mxCell id="HRQ94fjygY4lQHOxMg0O-1" value="Touriste" style="shape=umlActor;verticalLabelPosition=bottom;verticalAlign=top;html=1;" parent="1" vertex="1">
                    <mxGeometry x="260" y="135" width="30" height="60" as="geometry"/>
                </mxCell>
                <mxCell id="HRQ94fjygY4lQHOxMg0O-20" value="" style="rounded=0;orthogonalLoop=1;jettySize=auto;html=1;endArrow=none;endFill=0;" parent="1" source="HRQ94fjygY4lQHOxMg0O-5" target="HRQ94fjygY4lQHOxMg0O-19" edge="1">
                    <mxGeometry relative="1" as="geometry"/>
                </mxCell>
                <mxCell id="HRQ94fjygY4lQHOxMg0O-5" value="Guide" style="shape=umlActor;html=1;verticalLabelPosition=bottom;verticalAlign=top;align=center;" parent="1" vertex="1">
                    <mxGeometry x="260" y="240" width="30" height="60" as="geometry"/>
                </mxCell>
                <mxCell id="HRQ94fjygY4lQHOxMg0O-9" value="UC Heb." style="shape=umlFrame;whiteSpace=wrap;html=1;" parent="1" vertex="1">
                    <mxGeometry x="450" y="30" width="550" height="430" as="geometry"/>
                </mxCell>
                <mxCell id="HRQ94fjygY4lQHOxMg0O-17" value="Reserver un hébergement" style="ellipse;whiteSpace=wrap;html=1;verticalAlign=top;" parent="1" vertex="1">
                    <mxGeometry x="540" y="60" width="120" height="60" as="geometry"/>
                </mxCell>
                <mxCell id="HRQ94fjygY4lQHOxMg0O-19" value="&lt;div&gt;&lt;br&gt;&lt;/div&gt;&lt;div&gt;Proposer une visite de la ville&lt;br&gt;&lt;/div&gt;" style="ellipse;whiteSpace=wrap;html=1;verticalAlign=top;" parent="1" vertex="1">
                    <mxGeometry x="790" y="270" width="120" height="60" as="geometry"/>
                </mxCell>
                <mxCell id="4" value="Proposer un hébérgement" style="ellipse;whiteSpace=wrap;html=1;verticalAlign=top;" parent="1" vertex="1">
                    <mxGeometry x="710" y="370" width="120" height="60" as="geometry"/>
                </mxCell>
                <mxCell id="8" value="" style="html=1;endArrow=none;elbow=vertical;entryX=0;entryY=0.5;entryDx=0;entryDy=0;exitX=0.5;exitY=0.5;exitDx=0;exitDy=0;exitPerimeter=0;rounded=0;" parent="1" source="9" target="4" edge="1">
                    <mxGeometry width="160" relative="1" as="geometry">
                        <mxPoint x="480" y="220" as="sourcePoint"/>
                        <mxPoint x="640" y="220" as="targetPoint"/>
                    </mxGeometry>
                </mxCell>
                <mxCell id="14" style="edgeStyle=none;html=1;exitX=0.5;exitY=0;exitDx=0;exitDy=0;exitPerimeter=0;endArrow=blockThin;endFill=0;" parent="1" source="9" edge="1">
                    <mxGeometry relative="1" as="geometry">
                        <mxPoint x="275" y="330" as="targetPoint"/>
                    </mxGeometry>
                </mxCell>
                <mxCell id="9" value="Propriétaire" style="shape=umlActor;verticalLabelPosition=bottom;verticalAlign=top;html=1;" parent="1" vertex="1">
                    <mxGeometry x="260" y="390" width="30" height="60" as="geometry"/>
                </mxCell>
                <mxCell id="10" value="Demander une visite touristique" style="ellipse;whiteSpace=wrap;html=1;verticalAlign=top;" parent="1" vertex="1">
                    <mxGeometry x="820" y="70" width="160" height="50" as="geometry"/>
                </mxCell>
                <mxCell id="13" value="&amp;lt;&amp;lt;extend&amp;gt;&amp;gt;" style="html=1;verticalAlign=bottom;labelBackgroundColor=none;endArrow=none;endFill=0;dashed=1;exitX=1;exitY=0.5;exitDx=0;exitDy=0;startArrow=open;startFill=0;entryX=0;entryY=0.5;entryDx=0;entryDy=0;" parent="1" source="HRQ94fjygY4lQHOxMg0O-17" target="10" edge="1">
                    <mxGeometry width="160" relative="1" as="geometry">
                        <mxPoint x="640" y="169.5" as="sourcePoint"/>
                        <mxPoint x="800" y="169.5" as="targetPoint"/>
                    </mxGeometry>
                </mxCell>
                <mxCell id="17" value="Appartement" style="ellipse;whiteSpace=wrap;html=1;verticalAlign=top;" parent="1" vertex="1">
                    <mxGeometry x="470" y="180" width="120" height="40" as="geometry"/>
                </mxCell>
                <mxCell id="18" value="Maison" style="ellipse;whiteSpace=wrap;html=1;verticalAlign=top;" parent="1" vertex="1">
                    <mxGeometry x="610" y="180" width="120" height="40" as="geometry"/>
                </mxCell>
                <mxCell id="19" value="Chambre" style="ellipse;whiteSpace=wrap;html=1;verticalAlign=top;" parent="1" vertex="1">
                    <mxGeometry x="750" y="180" width="120" height="40" as="geometry"/>
                </mxCell>
                <mxCell id="20" value="" style="html=1;endArrow=block;elbow=vertical;endFill=0;" parent="1" target="HRQ94fjygY4lQHOxMg0O-17" edge="1">
                    <mxGeometry width="160" relative="1" as="geometry">
                        <mxPoint x="530" y="180" as="sourcePoint"/>
                        <mxPoint x="580" y="240" as="targetPoint"/>
                    </mxGeometry>
                </mxCell>
                <mxCell id="21" value="" style="html=1;endArrow=block;elbow=vertical;entryX=0.5;entryY=1;entryDx=0;entryDy=0;exitX=0.5;exitY=0;exitDx=0;exitDy=0;startArrow=none;startFill=0;endFill=0;" parent="1" source="18" target="HRQ94fjygY4lQHOxMg0O-17" edge="1">
                    <mxGeometry width="160" relative="1" as="geometry">
                        <mxPoint x="420" y="240" as="sourcePoint"/>
                        <mxPoint x="580" y="240" as="targetPoint"/>
                    </mxGeometry>
                </mxCell>
                <mxCell id="22" value="" style="html=1;endArrow=none;elbow=vertical;entryX=0.5;entryY=0;entryDx=0;entryDy=0;endFill=0;startArrow=block;startFill=0;exitX=1;exitY=1;exitDx=0;exitDy=0;" parent="1" source="HRQ94fjygY4lQHOxMg0O-17" target="19" edge="1">
                    <mxGeometry width="160" relative="1" as="geometry">
                        <mxPoint x="420" y="240" as="sourcePoint"/>
                        <mxPoint x="580" y="240" as="targetPoint"/>
                    </mxGeometry>
                </mxCell>
                <mxCell id="23" value="Réservation uniquement si le logement est disponible entre 2 dates" style="shape=note2;boundedLbl=1;whiteSpace=wrap;html=1;size=25;verticalAlign=top;align=center;" vertex="1" parent="1">
                    <mxGeometry x="570" y="-130" width="250" height="70" as="geometry"/>
                </mxCell>
                <mxCell id="24" value="" style="html=1;endArrow=none;elbow=vertical;exitX=0.5;exitY=1;exitDx=0;exitDy=0;exitPerimeter=0;" edge="1" parent="1" source="23" target="HRQ94fjygY4lQHOxMg0O-17">
                    <mxGeometry width="160" relative="1" as="geometry">
                        <mxPoint x="660" y="120" as="sourcePoint"/>
                        <mxPoint x="820" y="120" as="targetPoint"/>
                    </mxGeometry>
                </mxCell>
            </root>
        </mxGraphModel>
    </diagram>
</mxfile>